<svg aria-hidden="true" style="position: absolute; width: 0; height: 0; overflow: hidden;" version="1.1" xmlns="http://www.w3.org/2000/svg" xmlns:xlink="http://www.w3.org/1999/xlink">
<defs>
<symbol id="icon-camera" viewBox="0 0 42 32">
<path d="M39.5 6h-7.5c-1.927 0-1.998-1.797-2-2v-1c0-1.258-1.39-3-4-3h-9.969c-2.935 0-4 1.794-4 3v0.994c-0.001 0.082-0.048 2.006-2.031 2.006h-7.5c-1.379 0-2.5 1.122-2.5 2.5v18c0 1.378 1.121 2.5 2.5 2.5h6c0.276 0 0.5-0.224 0.5-0.5s-0.224-0.5-0.5-0.5h-6c-0.827 0-1.5-0.673-1.5-1.5v-12.5h8c-0.644 1.54-1 3.229-1 5 0 7.168 5.832 13 13 13s13-5.832 13-13c0-1.771-0.359-3.46-1.003-5h8.003v12.5c0 0.827-0.673 1.5-1.5 1.5h-7c-0.276 0-0.5 0.224-0.5 0.5s0.224 0.5 0.5 0.5h7c1.379 0 2.5-1.122 2.5-2.5v-18c0-1.378-1.121-2.5-2.5-2.5zM21 31c-6.617 0-12-5.383-12-12s5.383-12 12-12 12 5.383 12 12-5.383 12-12 12zM32.75 13c-0.074 0-0.143 0.018-0.206 0.047-2.164-4.179-6.522-7.047-11.544-7.047s-9.38 2.868-11.544 7.047c-0.063-0.029-0.132-0.047-0.206-0.047h-8.25v-4.5c0-0.827 0.673-1.5 1.5-1.5h7.5c2.368 0 3.019-1.958 3.031-3v-1c0-0.804 0.799-2 3-2h9.969c2.094 0 3 1.324 3 2v1c0 1.038 0.627 3 3 3h7.5c0.827 0 1.5 0.673 1.5 1.5v4.5h-8.25zM9.5 5c0.276 0 0.5-0.224 0.5-0.5v-1c0-0.827-0.673-1.5-1.5-1.5h-4c-0.827 0-1.5 0.673-1.5 1.5v1c0 0.276 0.224 0.5 0.5 0.5s0.5-0.224 0.5-0.5v-1c0-0.276 0.225-0.5 0.5-0.5h4c0.275 0 0.5 0.224 0.5 0.5v1c0 0.276 0.224 0.5 0.5 0.5zM21 10c-4.963 0-9 4.038-9 9s4.037 9 9 9 9-4.038 9-9-4.037-9-9-9zM21 27c-4.411 0-8-3.589-8-8s3.589-8 8-8 8 3.589 8 8-3.589 8-8 8z"></path>
</symbol>
<symbol id="icon-megaphone" viewBox="0 0 40 32">
<path d="M39.498 0c-0.277 0-0.498 0.224-0.498 0.5v31c0 0.276 0.221 0.5 0.498 0.5s0.5-0.224 0.5-0.5v-31c0-0.276-0.224-0.5-0.5-0.5zM37.717 1.204c-0.17-0.083-0.376-0.062-0.526 0.055l-0.565 0.445c-2.978 2.355-7.959 6.296-18.126 6.296h-13.869c-1.451 0-2.631 1.2-2.631 2.674v10.714c0 1.44 1.18 2.612 2.631 2.612h3.394c0.088 1.125 0.502 3.794 2.454 5.761 1.474 1.486 3.5 2.239 6.021 2.239 0.276 0 0.5-0.224 0.5-0.5s-0.224-0.5-0.5-0.5c-2.242 0-4.026-0.652-5.306-1.938-1.667-1.676-2.067-4.024-2.163-5.062h2.995c0.085 0.682 0.36 1.881 1.274 2.802 0.789 0.795 1.866 1.198 3.2 1.198 0.276 0 0.5-0.224 0.5-0.5s-0.224-0.5-0.5-0.5c-1.055 0-1.891-0.302-2.484-0.896-0.657-0.659-0.894-1.546-0.981-2.104h5.396c10.216 0 15.237 3.963 18.237 6.331l0.522 0.411c0.089 0.070 0.198 0.105 0.307 0.105 0.075 0 0.15-0.017 0.219-0.051 0.172-0.084 0.281-0.258 0.281-0.449v-28.694c0.001-0.191-0.108-0.365-0.28-0.449zM3 21.388v-10.714c0-0.923 0.731-1.674 1.631-1.674h3.369v14h-3.369c-0.915 0-1.631-0.708-1.631-1.612zM37 29.317c-3.134-2.466-8.328-6.317-18.568-6.317h-5.797c-0.047-0.015-0.095-0.030-0.148-0.031-0.001 0-0.001 0-0.002 0-0.054 0-0.105 0.015-0.154 0.031h-3.331v-14h9.5c10.237 0 15.394-3.864 18.5-6.316v26.633zM0.5 21.857c0.276 0 0.5-0.224 0.5-0.5v-10.714c0-0.276-0.224-0.5-0.5-0.5s-0.5 0.223-0.5 0.5v10.714c0 0.276 0.224 0.5 0.5 0.5z"></path>
</symbol>
<symbol id="icon-telescope" viewBox="0 0 35 32">
<path d="M27.464 2.314c-0.053-0.132-0.159-0.235-0.292-0.284s-0.281-0.039-0.406 0.027l-11.906 6.282c-0.224 0.118-0.324 0.385-0.233 0.621l0.245 0.641-6.873 3.769c-0.225 0.123-0.32 0.395-0.222 0.63l0.228 0.549-7.299 3.488c-0.24 0.115-0.348 0.397-0.246 0.643l1.498 3.61c0.080 0.192 0.265 0.309 0.462 0.309 0.056 0 0.112-0.009 0.167-0.029l7.625-2.701 0.228 0.549c0.079 0.191 0.264 0.309 0.462 0.309 0.046 0 0.092-0.006 0.139-0.020l7.276-2.097 0.218 0.569c0.074 0.197 0.263 0.321 0.465 0.321 0.049 0 0.098-0.007 0.147-0.022l13-4c0.134-0.041 0.244-0.136 0.304-0.262s0.065-0.272 0.013-0.401l-5-12.501zM2.7 21.469l-1.134-2.734 6.823-3.261 1.439 3.47-7.128 2.525zM11.191 19.623l-0.238-0.574c0 0 0 0 0 0l-1.843-4.445c0 0 0 0 0 0l-0.238-0.573 6.336-3.475 2.374 6.134 0.375 0.981-6.766 1.952zM19.3 18.385l-0.203-0.531c-0.003-0.011-0.001-0.024-0.006-0.035l-0.618-1.597-2.754-7.206 11.023-5.815 4.592 11.48-12.034 3.704zM28.964 0.314c-0.103-0.257-0.395-0.381-0.65-0.279-0.256 0.103-0.381 0.394-0.279 0.65l6 15c0.079 0.196 0.267 0.315 0.465 0.315 0.062 0 0.125-0.011 0.186-0.036 0.256-0.103 0.381-0.394 0.279-0.65l-6.001-15zM18 21h-3c-1.14 0-2 0.86-2 2v1.315l-5.879 6.859c-0.18 0.209-0.156 0.525 0.054 0.705 0.094 0.081 0.21 0.121 0.325 0.121 0.141 0 0.281-0.059 0.379-0.175l5.851-6.825h2.27v6.5c0 0.276 0.224 0.5 0.5 0.5s0.5-0.224 0.5-0.5v-6.5h2.27l5.85 6.825c0.099 0.116 0.239 0.175 0.38 0.175 0.115 0 0.231-0.040 0.325-0.121 0.21-0.18 0.234-0.495 0.054-0.705l-5.879-6.859v-1.24c0-1.163-0.878-2.075-2-2.075zM19 24h-5v-1c0-0.589 0.411-1 1-1h3c0.57 0 1 0.462 1 1.075v0.925z"></path>
</symbol>
<symbol id="icon-gears" viewBox="0 0 42 32">
<path d="M3.692 21.72c0.176 0.042 0.415 0.259 0.484 0.457l0.35 0.844c0.079 0.162 0.064 0.483-0.030 0.637l-1.397 2.284c-0.299 0.49-0.237 1.184 0.165 1.634l1.183 1.182c0.412 0.366 1.139 0.432 1.613 0.145l2.284-1.397c0.143-0.088 0.45-0.119 0.665-0.018l0.843 0.348c0.17 0.059 0.387 0.297 0.429 0.473l0.627 2.604c0.133 0.552 0.66 1.006 1.226 1.058 0 0 0.347 0.032 0.867 0.032s0.867-0.032 0.868-0.032c0.565-0.051 1.092-0.506 1.225-1.058l0.628-2.604c0.042-0.175 0.258-0.414 0.456-0.483l0.844-0.35c0.149-0.073 0.494-0.058 0.637 0.030l2.284 1.397c0.201 0.123 0.441 0.188 0.696 0.188 0.345 0 0.679-0.121 0.938-0.352l1.182-1.183c0.382-0.429 0.444-1.123 0.145-1.613l-1.397-2.284c-0.094-0.154-0.109-0.475-0.018-0.665l0.348-0.843c0.059-0.17 0.297-0.387 0.473-0.429l2.604-0.627c0.552-0.133 1.006-0.66 1.058-1.226 0 0 0.032-0.347 0.032-0.867s-0.032-0.867-0.032-0.868c-0.051-0.565-0.506-1.092-1.058-1.226l-2.603-0.626c-0.176-0.042-0.415-0.259-0.484-0.457l-0.35-0.844c-0.079-0.162-0.064-0.483 0.030-0.637l1.397-2.284c0.299-0.49 0.237-1.184-0.165-1.634l-1.183-1.182c-0.413-0.367-1.141-0.433-1.613-0.145l-2.284 1.397c-0.143 0.087-0.451 0.12-0.665 0.018l-0.843-0.348c-0.17-0.059-0.386-0.297-0.428-0.473l-0.628-2.604c-0.133-0.552-0.66-1.006-1.226-1.058-0.002 0.001-0.349-0.031-0.869-0.031s-0.867 0.032-0.868 0.032c-0.565 0.051-1.092 0.506-1.226 1.058l-0.626 2.602c-0.042 0.176-0.259 0.415-0.457 0.484l-0.844 0.35c-0.15 0.073-0.494 0.057-0.637-0.030l-2.283-1.397c-0.473-0.288-1.185-0.238-1.634 0.164l-1.182 1.183c-0.382 0.429-0.444 1.123-0.145 1.613l1.397 2.284c0.094 0.154 0.109 0.475 0.018 0.665l-0.348 0.843c-0.059 0.17-0.297 0.387-0.473 0.429l-2.604 0.627c-0.552 0.133-1.006 0.66-1.058 1.226 0.002 0-0.030 0.347-0.030 0.867s0.032 0.867 0.032 0.868c0.051 0.565 0.506 1.092 1.058 1.226l2.602 0.626zM1 19c0-0.458 0.027-0.767 0.028-0.777 0.012-0.135 0.165-0.312 0.296-0.344l2.604-0.627c0.505-0.122 1.014-0.584 1.172-1.047l0.324-0.787c0.228-0.467 0.196-1.153-0.075-1.597l-1.397-2.283c-0.067-0.111-0.048-0.331 0.018-0.406l1.141-1.142c0.091-0.081 0.323-0.101 0.427-0.038l2.284 1.397c0.433 0.265 1.175 0.283 1.568 0.088l0.788-0.326c0.491-0.169 0.953-0.678 1.075-1.184l0.626-2.603c0.032-0.132 0.209-0.285 0.344-0.297 0.010 0 0.319-0.027 0.777-0.027s0.767 0.027 0.777 0.028c0.135 0.012 0.312 0.165 0.344 0.296l0.627 2.603c0.122 0.505 0.583 1.015 1.047 1.173l0.787 0.324c0.457 0.224 1.165 0.189 1.597-0.075l2.283-1.397c0.104-0.063 0.35-0.030 0.406 0.018l1.142 1.141c0.086 0.097 0.105 0.316 0.038 0.427l-1.397 2.284c-0.271 0.443-0.303 1.13-0.088 1.568l0.326 0.788c0.169 0.491 0.678 0.953 1.184 1.075l2.603 0.626c0.132 0.032 0.285 0.209 0.297 0.344 0 0.010 0.027 0.319 0.027 0.777s-0.027 0.767-0.028 0.777c-0.012 0.135-0.165 0.312-0.296 0.344l-2.604 0.627c-0.505 0.122-1.014 0.584-1.172 1.047l-0.324 0.787c-0.228 0.467-0.196 1.153 0.075 1.597l1.397 2.283c0.067 0.111 0.048 0.331-0.018 0.406l-1.141 1.142c-0.054 0.048-0.152 0.079-0.251 0.079-0.069 0-0.133-0.015-0.175-0.041l-2.284-1.397c-0.432-0.264-1.174-0.283-1.568-0.088l-0.788 0.326c-0.491 0.169-0.953 0.679-1.074 1.184l-0.627 2.603c-0.032 0.132-0.209 0.285-0.344 0.297-0.011 0-0.32 0.027-0.778 0.027s-0.767-0.027-0.777-0.028c-0.135-0.012-0.312-0.165-0.344-0.296l-0.627-2.604c-0.122-0.505-0.584-1.014-1.047-1.172l-0.787-0.324c-0.204-0.1-0.451-0.152-0.715-0.152-0.329 0-0.642 0.081-0.882 0.228l-2.283 1.397c-0.104 0.063-0.351 0.029-0.406-0.018l-1.142-1.142c-0.086-0.097-0.105-0.316-0.038-0.427l1.397-2.284c0.271-0.443 0.303-1.13 0.088-1.568l-0.326-0.788c-0.169-0.491-0.678-0.953-1.184-1.075l-2.603-0.626c-0.132-0.032-0.285-0.209-0.297-0.344 0-0.010-0.027-0.319-0.027-0.777zM13 24.5c3.033 0 5.5-2.467 5.5-5.5s-2.467-5.5-5.5-5.5-5.5 2.467-5.5 5.5 2.467 5.5 5.5 5.5zM13 14.5c2.481 0 4.5 2.019 4.5 4.5s-2.019 4.5-4.5 4.5-4.5-2.019-4.5-4.5 2.019-4.5 4.5-4.5zM27.477 5.314c-0.040 0.061-0.185 0.138-0.259 0.138l-1.861-0.018c-0.452 0-0.905 0.321-1.053 0.746 0 0-0.082 0.233-0.172 0.59s-0.128 0.601-0.128 0.601c-0.070 0.451 0.181 0.95 0.584 1.161l1.641 0.86c0.063 0.033 0.156 0.172 0.166 0.273l0.093 0.635c0.015 0.070-0.033 0.23-0.084 0.28l-1.322 1.296c-0.331 0.324-0.418 0.878-0.19 1.313l0.599 1c0.253 0.372 0.801 0.562 1.231 0.428l1.824-0.558c0.099 0 0.198 0.038 0.254 0.083l0.515 0.38c0.060 0.040 0.139 0.187 0.138 0.259l-0.018 1.852c-0.004 0.456 0.316 0.913 0.746 1.063 0 0 0.233 0.082 0.59 0.172s0.601 0.128 0.601 0.128c0.026 0.004 0.13 0.012 0.156 0.012 0.408 0 0.822-0.245 1.005-0.596l0.86-1.641c0.033-0.063 0.172-0.156 0.273-0.166l0.663-0.096c0.1 0 0.218 0.052 0.251 0.086l1.296 1.322c0.315 0.322 0.846 0.437 1.313 0.19l0.999-0.599c0.382-0.26 0.567-0.79 0.429-1.231l-0.552-1.767c-0.021-0.068 0.012-0.232 0.078-0.311l0.38-0.515c0.040-0.061 0.185-0.138 0.259-0.138l1.861 0.018c0.452 0 0.905-0.321 1.053-0.746 0 0 0.082-0.233 0.172-0.59s0.128-0.601 0.128-0.601c0.070-0.451-0.181-0.95-0.584-1.161l-1.641-0.86c-0.063-0.033-0.156-0.172-0.166-0.273l-0.092-0.633c-0.015-0.070 0.033-0.23 0.084-0.28l1.322-1.296c0.331-0.324 0.418-0.878 0.19-1.313l-0.599-1c-0.253-0.371-0.8-0.563-1.231-0.429l-1.825 0.558c-0.099 0-0.198-0.038-0.254-0.083l-0.515-0.38c-0.060-0.040-0.139-0.187-0.138-0.259l0.018-1.852c0.004-0.456-0.316-0.913-0.746-1.063 0 0-0.233-0.082-0.59-0.172s-0.601-0.128-0.601-0.128c-0.026-0.003-0.13-0.011-0.156-0.011-0.408 0-0.822 0.245-1.005 0.596l-0.86 1.641c-0.033 0.063-0.172 0.156-0.273 0.166l-0.663 0.095c-0.1 0-0.218-0.052-0.251-0.086l-1.296-1.322c-0.314-0.321-0.844-0.437-1.313-0.19l-1 0.598c-0.382 0.26-0.567 0.79-0.429 1.231l0.552 1.767c0.021 0.068-0.012 0.232-0.078 0.311l-0.379 0.515zM28.297 5.886l0.343-0.466c0.268-0.317 0.372-0.834 0.248-1.229l-0.551-1.766c-0.005-0.028 0.017-0.091 0.012-0.092l0.948-0.568 0.113 0.017 1.297 1.322c0.23 0.234 0.609 0.386 0.965 0.386 0.082 0 0.161-0.008 0.204-0.019l0.575-0.085c0.412-0.036 0.851-0.328 1.043-0.694l0.859-1.64c0.016-0.025 0.079-0.061 0.12-0.061 0.011 0.001 0.215 0.035 0.513 0.109s0.493 0.142 0.502 0.146c0.031 0.013 0.076 0.078 0.078 0.11l-0.018 1.852c-0.004 0.414 0.245 0.879 0.567 1.089l0.465 0.343c0.309 0.261 0.839 0.371 1.229 0.248l1.774-0.552c0.042 0 0.089 0.026 0.083 0.013l0.568 0.948c0.011 0.026 0 0.092-0.017 0.113l-1.322 1.297c-0.295 0.291-0.448 0.795-0.367 1.169l0.084 0.575c0.036 0.412 0.328 0.851 0.695 1.043l1.64 0.859c0.028 0.018 0.063 0.088 0.061 0.12-0.001 0.011-0.035 0.215-0.109 0.513s-0.142 0.493-0.146 0.502c-0.013 0.031-0.078 0.076-0.11 0.078l-1.862-0.018c-0.411 0-0.871 0.249-1.079 0.567l-0.342 0.465c-0.268 0.317-0.372 0.834-0.248 1.229l0.551 1.766c0.005 0.027-0.017 0.091-0.012 0.092l-0.948 0.568-0.113-0.017-1.297-1.322c-0.23-0.234-0.609-0.386-0.965-0.386-0.082 0-0.161 0.008-0.204 0.019l-0.575 0.085c-0.412 0.036-0.851 0.328-1.043 0.694l-0.859 1.64c-0.016 0.025-0.079 0.061-0.12 0.061v0c-0.011-0.001-0.215-0.035-0.513-0.109-0.297-0.075-0.493-0.142-0.502-0.146-0.031-0.013-0.076-0.078-0.078-0.11l0.018-1.852c0.004-0.414-0.245-0.879-0.567-1.089l-0.465-0.343c-0.222-0.188-0.549-0.3-0.875-0.3-0.126 0-0.246 0.018-0.355 0.052l-1.774 0.552c-0.043 0-0.090-0.023-0.083-0.013l-0.568-0.948c-0.011-0.026 0-0.092 0.017-0.113l1.322-1.297c0.295-0.291 0.448-0.795 0.367-1.169l-0.084-0.574c-0.036-0.412-0.328-0.851-0.695-1.043l-1.64-0.859c-0.028-0.018-0.063-0.088-0.061-0.12 0.001-0.011 0.035-0.215 0.109-0.513 0.075-0.297 0.142-0.493 0.146-0.502 0.013-0.031 0.078-0.076 0.11-0.078l1.862 0.018c0.411 0 0.871-0.249 1.079-0.567zM33 12c1.654 0 3-1.346 3-3s-1.346-3-3-3-3 1.346-3 3 1.346 3 3 3zM33 7c1.103 0 2 0.897 2 2s-0.897 2-2 2-2-0.897-2-2 0.897-2 2-2z"></path>
</symbol>
<symbol id="icon-tools-2" viewBox="0 0 32 32">
<path d="M28.354 1.354c0.115-0.115 0.167-0.279 0.139-0.439s-0.132-0.297-0.28-0.366c-2.291-1.080-5.010-0.606-6.798 1.191-1.698 1.709-2.291 4.393-1.499 6.637l-11.539 11.539c-0.627-0.224-1.297-0.336-1.996-0.336-1.714 0-3.376 0.682-4.559 1.872-1.782 1.792-2.284 4.44-1.281 6.747 0.066 0.152 0.203 0.262 0.366 0.292 0.164 0.031 0.331-0.021 0.447-0.139l3.491-3.509c0.23-0.232 0.601-0.263 0.793-0.068l1.507 1.577c0.219 0.221 0.209 0.562-0.022 0.795l-3.478 3.5c-0.115 0.115-0.166 0.279-0.138 0.439s0.132 0.296 0.279 0.365c0.829 0.391 1.701 0.588 2.591 0.588 1.572 0 3.065-0.632 4.207-1.78 1.698-1.708 2.291-4.392 1.498-6.636l11.539-11.54c0.628 0.224 1.298 0.336 1.997 0.336 1.714 0 3.376-0.682 4.559-1.872 1.782-1.792 2.284-4.44 1.281-6.747-0.066-0.152-0.203-0.262-0.366-0.292-0.161-0.028-0.33 0.021-0.447 0.139l-3.491 3.509c-0.215 0.216-0.58 0.214-0.801-0.010l-1.499-1.499c-0.226-0.227-0.225-0.568-0.001-0.794l3.501-3.499zM24.146 6.354l1.499 1.499c0.599 0.602 1.625 0.605 2.218 0.009l2.93-2.944c0.469 1.741-0.016 3.609-1.324 4.926-0.997 1.003-2.399 1.577-3.85 1.577-0.683 0-1.33-0.128-1.923-0.38-0.188-0.081-0.405-0.037-0.549 0.106l-12 12c-0.144 0.144-0.186 0.36-0.107 0.547 0.803 1.91 0.314 4.375-1.163 5.861-1.321 1.328-3.244 1.801-4.985 1.258l2.941-2.96c0.621-0.625 0.631-1.594 0.029-2.198l-1.506-1.577c-0.581-0.585-1.614-0.549-2.218 0.062l-2.93 2.944c-0.469-1.741 0.016-3.609 1.324-4.926 0.997-1.003 2.399-1.577 3.85-1.577 0.683 0 1.33 0.128 1.923 0.38 0.187 0.082 0.405 0.037 0.549-0.106l12-12c0.144-0.144 0.186-0.36 0.107-0.547-0.803-1.91-0.314-4.376 1.163-5.862 1.32-1.328 3.242-1.798 4.982-1.258l-2.96 2.961c-0.616 0.617-0.616 1.585 0 2.205zM29.21 30.647c-0.221 0.222-0.604 0.222-0.827-0.002l-10.030-10c-0.195-0.193-0.512-0.194-0.707 0.002s-0.194 0.512 0.001 0.707l10.029 9.998c0.3 0.301 0.698 0.467 1.122 0.467 0 0 0 0 0 0 0.424 0 0.822-0.166 1.128-0.474l1.429-1.493c0.615-0.618 0.615-1.587-0.001-2.206l-10-10c-0.195-0.195-0.512-0.195-0.707 0s-0.195 0.512 0 0.707l9.999 9.999c0.229 0.23 0.229 0.564-0.007 0.802l-1.429 1.493zM5.854 3.146l-3-3c-0.195-0.195-0.512-0.195-0.707 0l-2 2c-0.195 0.195-0.195 0.512 0 0.707l3 3c0.097 0.098 0.225 0.147 0.353 0.147s0.256-0.049 0.354-0.146l0.646-0.647 7.646 7.646c0.098 0.098 0.226 0.147 0.354 0.147s0.256-0.049 0.354-0.146c0.195-0.195 0.195-0.512 0-0.707l-7.647-7.647 0.646-0.646c0.196-0.196 0.196-0.512 0.001-0.708zM3.5 4.793l-2.293-2.293 1.293-1.293 2.293 2.293-1.293 1.293z"></path>
</symbol>
<symbol id="icon-paintbrush" viewBox="0 0 22 32">
<path d="M15.403 21h4.58c1.053 0 1.909-0.856 2.017-1.909v-17.182c-0.108-1.053-0.964-1.909-2.017-1.909h-17.966c-1.053 0-1.909 0.856-2.017 1.909v17.182c0.108 1.053 0.964 1.909 2.017 1.909h4.962c0.348 0 2.083 0.074 2.083 1.542 0 2.622-0.553 3.842-0.762 4.302l-0.049 0.109 0.403 0.174v0.013l-0.447-0.090c-0.017 0.033-0.030 0.068-0.038 0.104-0.154 0.411-0.232 0.833-0.232 1.257 0.001 2.147 1.231 3.589 3.063 3.589 1.851 0 3.094-1.442 3.094-3.589 0-0.391-0.066-0.78-0.198-1.161-0.005-0.114-0.049-0.22-0.119-0.302-0.026-0.060-0.060-0.125-0.101-0.202-0.219-0.415-0.676-1.277-0.676-4.204 0-0.62 0.64-1.542 2.403-1.542zM1 12.059h20v3.941h-20v-3.941zM2.017 1h17.966c0.501 0 0.909 0.408 1.017 0.909v9.149h-20v-9.149c0.108-0.501 0.516-0.909 1.017-0.909zM12.792 27.214c0.028 0.053 0.052 0.097 0.093 0.189 0 0.001 0.003 0.007 0.007 0.016 0.004 0.013 0.008 0.025 0.013 0.038 0.125 0.313 0.188 0.635 0.188 0.954 0.001 1.252-0.549 2.589-2.093 2.589-1.521 0-2.062-1.337-2.062-2.589 0-0.319 0.063-0.641 0.188-0.954 0.004-0.012 0.009-0.023 0.012-0.035 0.014-0.030 0.031-0.068 0.033-0.072l0.042-0.093c0.232-0.514 0.851-1.876 0.851-4.715-0.002-2.007-1.939-2.542-3.114-2.542 0 0 0 0-0.001 0h-4.932c-0.501 0-0.909-0.408-1.017-0.909v-2.091h20v2.091c-0.108 0.501-0.516 0.909-1.017 0.909h-4.58c-2.497 0-3.403 1.521-3.403 2.542 0 3.175 0.535 4.187 0.792 4.672z"></path>
</symbol>
<symbol id="icon-anchor" viewBox="0 0 35 32">
<path d="M0.812 18.896l2.188-2.189v0.793c0 7.589 6.911 14.5 14.5 14.5s14.5-6.911 14.5-14.5v-0.772l2.209 2.209c0.098 0.098 0.226 0.146 0.354 0.146s0.256-0.049 0.354-0.146c0.195-0.195 0.195-0.512 0-0.707l-3.018-3.018c-0.092-0.125-0.232-0.212-0.399-0.212-0.045 0-0.084 0.014-0.126 0.025-0.092 0.019-0.181 0.054-0.249 0.121l-3.042 3.042c-0.195 0.195-0.195 0.512 0 0.707s0.512 0.195 0.707 0l2.21-2.209v0.814c0 6.898-6.135 13.177-13 13.472v-18.972h8.5c0.276 0 0.5-0.224 0.5-0.5s-0.224-0.5-0.5-0.5h-8.5v-4.051c1.692-0.245 3-1.691 3-3.449 0-1.93-1.57-3.5-3.5-3.5s-3.5 1.57-3.5 3.5c0 1.758 1.308 3.204 3 3.449v4.051h-8.5c-0.276 0-0.5 0.224-0.5 0.5s0.224 0.5 0.5 0.5h8.5v18.972c-6.865-0.295-13-6.574-13-13.472v-0.793l2.23 2.23c0.098 0.098 0.226 0.146 0.354 0.146s0.256-0.049 0.354-0.146c0.195-0.195 0.195-0.512 0-0.707l-3.083-3.082c-0.091-0.092-0.217-0.148-0.355-0.148s-0.264 0.056-0.354 0.147l-3.041 3.041c-0.195 0.195-0.195 0.512 0 0.707s0.512 0.196 0.707 0.001zM17.5 1c1.378 0 2.5 1.121 2.5 2.5s-1.122 2.5-2.5 2.5-2.5-1.121-2.5-2.5 1.122-2.5 2.5-2.5z"></path>
</symbol>
<symbol id="icon-library" viewBox="0 0 32 32">
<path d="M3.425 13.953c0 0 24.137 0 24.173 0 0.583-0.255 0.557-0.802 0.011-1.165-0.547-0.365-12.119-8.718-12.119-8.718s-11.482 8.353-12.065 8.718c-0.582 0.363-0.619 0.91 0 1.165zM15.49 8.195c0.965 0 1.748 0.782 1.748 1.747s-0.783 1.748-1.748 1.748-1.747-0.783-1.747-1.748 0.782-1.747 1.747-1.747zM4.027 26.932h22.968v-0.977h-22.968v0.977zM9 24.936v-8.903h0.978v-1.103h-4.993v1.003h0.978v9.002h3.037zM17.030 24.936v-8.966h0.978v-0.978h-4.992v0.94h0.977v9.002h3.037zM3.030 28.93h24.963v-0.914h-24.963v0.914zM24.998 24.936v-8.966h0.978v-0.978h-4.993v0.94h0.979v9.002h3.036z"></path>
</symbol>
<symbol id="icon-stats" viewBox="0 0 32 32">
<path d="M5.998 5h-0.987v23h20v-0.963l-18.996-0.049-0.017-21.988zM8.011 25h5v-10.875l-5 5v5.875zM14.011 25h5v-9.875l-2 2-3-3v10.875zM20.011 25h5v-15.187l-5 5v10.187zM13.387 11.067l3.62 3.6 7.148-7.112 1.834 1.844-0.044-4.399-4.415 0.023 1.717 1.722-6.242 6.26-3.689-3.703-5.623 5.604 0.939 0.912 4.755-4.751z"></path>
</symbol>
<symbol id="icon-presentation" viewBox="0 0 32 32">
<path d="M27.002 5.005h-23.005c-0.551 0-0.997-0.447-0.997-1s0.446-0.999 0.997-0.999h10.536v-1c0-0.552 0.447-0.999 0.998-0.999s0.997 0.447 0.997 0.999v1h10.474c0.552 0 0.998 0.448 0.998 0.999 0 0.553-0.446 1-0.998 1zM27.002 20.998h-23.005v-14.994h23.005v14.994zM7 13.032c0 2.213 1.791 4.007 4 4.007s4-1.794 4-4.007h-4v-4.009c-2.209 0-4 1.795-4 4.009zM18.024 9.003h-0.997v0.999h0.997v-0.999zM18.024 11.002h-0.997v0.999h0.997v-0.999zM18.024 13.001h-0.997v0.999h0.997v-0.999zM18.024 15h-0.997v1h0.997v-1zM18.024 17h-0.997v1h0.997v-1zM24.010 9.003h-4.987v0.999h4.987v-0.999zM24.010 11.002h-4.987v0.999h4.987v-0.999zM24.010 13.001h-4.987v0.999h4.987v-0.999zM24.010 15h-4.987v1h4.987v-1zM24.010 17h-4.987v1h4.987v-1zM12.781 25.996h2.251v-4.998h0.998v4.998h2.216l-2.216-4.998h1.995l3.989 8.996h-1.994l-1.33-3h-2.66v4.998h-0.998v-4.998h-2.701l-1.351 3h-1.995l4.052-8.996h1.995l-2.251 4.998zM16.030 20.998v0 0 0zM15.032 20.998v0 0 0z"></path>
</symbol>
</defs>
</svg>
