<svg aria-hidden="true" style="position: absolute; width: 0; height: 0; overflow: hidden;" version="1.1" xmlns="http://www.w3.org/2000/svg" xmlns:xlink="http://www.w3.org/1999/xlink">
<defs>
<symbol id="icon-tinder" viewBox="0 0 32 32">
<path fill="#ff6b6b" style="fill: var(--color1, #ff6b6b)" d="M12.423 12.601c0.060 0.097 0.164 0.16 0.283 0.16 0.080 0 0.155-0.028 0.211-0.076l0.020-0.016c0.52-0.433 0.988-0.88 1.428-1.356 4.279-4.644 1.78-10.345 1.76-10.399-0.12-0.28-0.040-0.612 0.2-0.792 0.26-0.18 0.58-0.16 0.82 0.044 14.5 13.485 10.66 23.757 10.38 24.449-1.16 4.188-5.78 7.219-11.259 7.373-0.184 0.011-0.323 0.011-0.484 0.011-6.469 0-11.969-3.985-11.969-9.076v-0.080c0-7.063 6.393-14.029 6.679-14.325 0.181-0.199 0.46-0.26 0.7-0.14 0.24 0.101 0.396 0.34 0.388 0.601-0.057 1.381 0.223 2.58 0.841 3.6v0.020z"></path>
</symbol>
<symbol id="icon-map-signs" viewBox="0 0 28 28">
<path d="M27.266 4.641c0.203 0.203 0.203 0.516 0 0.719l-2.203 2.203c-0.281 0.281-0.672 0.438-1.062 0.438h-21c-0.547 0-1-0.453-1-1v-4c0-0.547 0.453-1 1-1h9v-1c0-0.547 0.453-1 1-1h2c0.547 0 1 0.453 1 1v1h8c0.391 0 0.781 0.156 1.062 0.438zM12 19h4v8c0 0.547-0.453 1-1 1h-2c-0.547 0-1-0.453-1-1v-8zM25 12c0.547 0 1 0.453 1 1v4c0 0.547-0.453 1-1 1h-21c-0.391 0-0.781-0.156-1.062-0.438l-2.203-2.203c-0.203-0.203-0.203-0.516 0-0.719l2.203-2.203c0.281-0.281 0.672-0.438 1.062-0.438h8v-3h4v3h9z"></path>
</symbol>
<symbol id="icon-feather" viewBox="0 0 20 20">
<path d="M4.254 19.567c0.307-0.982 0.77-2.364 1.391-4.362 2.707-0.429 3.827 0.341 5.546-2.729-1.395 0.427-3.077-0.792-2.987-1.321s3.913 0.381 6.416-3.173c-3.155 0.696-4.164-0.836-3.757-1.067 0.939-0.534 3.726-0.222 5.212-1.669 0.766-0.745 1.125-2.556 0.813-3.202-0.374-0.781-2.656-1.946-3.914-1.836s-3.231 4.79-3.817 4.754c-0.584-0.037-0.703-2.098 0.319-4.013-1.077 0.477-3.051 1.959-3.67 3.226-1.153 2.357 0.108 7.766-0.296 7.958s-1.766-2.481-2.172-3.694c-0.555 1.859-0.568 3.721 1.053 6.194-0.611 1.623-0.945 3.491-0.996 4.441-0.024 0.759 0.724 0.922 0.859 0.493z"></path>
</symbol>
<symbol id="icon-login" viewBox="0 0 20 20">
<path d="M14 10l-6-5v3h-7v4h7v3l6-5zM17 17h-8v2h8c1.1 0 2-0.9 2-2v-14c0-1.1-0.9-2-2-2h-8v2h8v14z"></path>
</symbol>
<symbol id="icon-search" viewBox="0 0 33 32">
<path d="M1.5 32h21c0.827 0 1.5-0.673 1.5-1.5v-7.5c0-0.010-0.005-0.018-0.006-0.028 0.055-0.035 0.112-0.068 0.166-0.105l7.986 7.986c0.098 0.098 0.226 0.147 0.354 0.147s0.256-0.049 0.354-0.146c0.195-0.195 0.195-0.512 0-0.707l-7.913-7.913c1.264-1.187 2.059-2.868 2.059-4.734 0-2.297-1.201-4.316-3.006-5.472 0.001-0.010 0.006-0.018 0.006-0.028v-2.5c0-0.017-0.008-0.031-0.009-0.047-0.002-0.023-0.008-0.043-0.013-0.065-0.017-0.071-0.046-0.135-0.090-0.191-0.007-0.009-0.006-0.020-0.013-0.029l-8-9c-0.003-0.003-0.007-0.003-0.010-0.006-0.060-0.065-0.137-0.108-0.223-0.134-0.019-0.006-0.036-0.008-0.056-0.011-0.029-0.005-0.056-0.017-0.086-0.017h-14c-0.827 0-1.5 0.673-1.5 1.5v29c0 0.827 0.673 1.5 1.5 1.5zM26 17.5c0 3.033-2.468 5.5-5.5 5.5s-5.5-2.467-5.5-5.5 2.468-5.5 5.5-5.5 5.5 2.467 5.5 5.5zM16 1.815l6.387 7.185h-5.887c-0.22 0-0.5-0.42-0.5-0.75v-6.435zM1 1.5c0-0.276 0.225-0.5 0.5-0.5h13.5v7.25c0 0.809 0.655 1.75 1.5 1.75h6.5v1.501c-0.77-0.322-1.614-0.501-2.5-0.501-1.838 0-3.496 0.77-4.679 2h-10.321c-0.276 0-0.5 0.224-0.5 0.5s0.224 0.5 0.5 0.5h9.532c-0.565 0.879-0.922 1.901-1.006 3h-8.526c-0.276 0-0.5 0.224-0.5 0.5s0.224 0.5 0.5 0.5h8.525c0.084 1.099 0.442 2.121 1.006 3h-9.531c-0.276 0-0.5 0.224-0.5 0.5s0.224 0.5 0.5 0.5h10.25c0.021 0 0.039-0.009 0.060-0.012 1.184 1.237 2.847 2.012 4.69 2.012 0.886 0 1.73-0.179 2.5-0.502v7.002c0 0.276-0.225 0.5-0.5 0.5h-21c-0.28 0-0.5-0.22-0.5-0.5v-29zM5.5 10h6c0.276 0 0.5-0.224 0.5-0.5s-0.224-0.5-0.5-0.5h-6c-0.276 0-0.5 0.224-0.5 0.5s0.224 0.5 0.5 0.5zM5.5 26h13c0.276 0 0.5-0.224 0.5-0.5s-0.224-0.5-0.5-0.5h-13c-0.276 0-0.5 0.224-0.5 0.5s0.224 0.5 0.5 0.5z"></path>
</symbol>
<symbol id="icon-browser" viewBox="0 0 42 32">
<path d="M41.5 10c-0.276 0-0.5 0.224-0.5 0.5v20c0 0.276-0.224 0.5-0.5 0.5h-39c-0.276 0-0.5-0.224-0.5-0.5v-20c0-0.276-0.224-0.5-0.5-0.5s-0.5 0.224-0.5 0.5v20c0 0.827 0.673 1.5 1.5 1.5h39c0.827 0 1.5-0.673 1.5-1.5v-20c0-0.276-0.224-0.5-0.5-0.5zM40.5 0h-39c-0.827 0-1.5 0.673-1.5 1.5v6c0 0.276 0.224 0.5 0.5 0.5h41c0.276 0 0.5-0.224 0.5-0.5v-6c0-0.827-0.673-1.5-1.5-1.5zM41 7h-40v-5.5c0-0.276 0.224-0.5 0.5-0.5h39c0.276 0 0.5 0.224 0.5 0.5v5.5zM17.5 28c0.276 0 0.5-0.224 0.5-0.5v-16c0-0.276-0.224-0.5-0.5-0.5h-13c-0.276 0-0.5 0.224-0.5 0.5v16c0 0.276 0.224 0.5 0.5 0.5h13zM5 12h12v15h-12v-15zM22.5 15h15c0.276 0 0.5-0.224 0.5-0.5s-0.224-0.5-0.5-0.5h-15c-0.276 0-0.5 0.224-0.5 0.5s0.224 0.5 0.5 0.5zM22.5 20h15c0.276 0 0.5-0.224 0.5-0.5s-0.224-0.5-0.5-0.5h-15c-0.276 0-0.5 0.224-0.5 0.5s0.224 0.5 0.5 0.5zM22.5 25h15c0.276 0 0.5-0.224 0.5-0.5s-0.224-0.5-0.5-0.5h-15c-0.276 0-0.5 0.224-0.5 0.5s0.224 0.5 0.5 0.5zM3 4c0 0.552 0.448 1 1 1s1-0.448 1-1c0-0.552-0.448-1-1-1s-1 0.448-1 1zM7 4c0 0.552 0.448 1 1 1s1-0.448 1-1c0-0.552-0.448-1-1-1s-1 0.448-1 1zM11 4c0 0.552 0.448 1 1 1s1-0.448 1-1c0-0.552-0.448-1-1-1s-1 0.448-1 1z"></path>
</symbol>
<symbol id="icon-briefcase" viewBox="0 0 38 32">
<path d="M37.5 18c-0.276 0-0.5 0.224-0.5 0.5v12c0 0.276-0.224 0.5-0.5 0.5h-35c-0.276 0-0.5-0.224-0.5-0.5v-12c0-0.276-0.224-0.5-0.5-0.5s-0.5 0.224-0.5 0.5v12c0 0.827 0.673 1.5 1.5 1.5h35c0.827 0 1.5-0.673 1.5-1.5v-12c0-0.276-0.224-0.5-0.5-0.5zM25.5 5c0.276 0 0.5-0.224 0.5-0.5v-3c0-0.827-0.673-1.5-1.5-1.5h-11c-0.827 0-1.5 0.673-1.5 1.5v3c0 0.276 0.224 0.5 0.5 0.5s0.5-0.224 0.5-0.5v-3c0-0.276 0.224-0.5 0.5-0.5h11c0.276 0 0.5 0.224 0.5 0.5v3c0 0.276 0.224 0.5 0.5 0.5zM36.5 7h-35c-0.827 0-1.5 0.673-1.5 1.5v4.958c0 2.778 9.456 6.5 19.125 6.5 9.543 0 18.875-3.722 18.875-6.5v-4.958c0-0.827-0.673-1.5-1.5-1.5zM37 13.458c0 1.764-8.457 5.5-17.875 5.5-9.55 0-18.125-3.735-18.125-5.5v-4.958c0-0.276 0.224-0.5 0.5-0.5h35c0.276 0 0.5 0.224 0.5 0.5v4.958zM19.125 23c0.943 0 1.923-0.039 2.914-0.116 0.275-0.021 0.481-0.262 0.459-0.538-0.021-0.275-0.252-0.486-0.538-0.459-2.014 0.157-3.909 0.15-5.919-0.020-0.264-0.027-0.517 0.181-0.54 0.456s0.181 0.517 0.456 0.54c1.076 0.091 2.142 0.137 3.168 0.137z"></path>
</symbol>
<symbol id="icon-envelope" viewBox="0 0 38 32">
<path d="M20.060 0.413c-0.58-0.533-1.539-0.533-2.119 0l-17.688 10.671c-0.15 0.091-0.242 0.253-0.242 0.428v18.922c0 0.863 0.706 1.566 1.574 1.566h34.83c0.868 0 1.574-0.703 1.574-1.566v-18.922c0-0.175-0.092-0.337-0.242-0.428l-17.687-10.671zM18.504 1.24c0.035-0.021 0.066-0.046 0.095-0.074 0.108-0.107 0.25-0.166 0.401-0.166s0.293 0.059 0.4 0.166c0.029 0.028 0.061 0.053 0.095 0.074l17.227 10.394-12.478 7.436c-0.237 0.142-0.315 0.448-0.174 0.686 0.094 0.157 0.26 0.244 0.43 0.244 0.087 0 0.175-0.022 0.255-0.070l12.245-7.29v17.757l-16.935-11.266c-0.538-0.429-1.594-0.429-2.096-0.025l-16.969 11.286v-17.752l12.244 7.29c0.080 0.048 0.169 0.070 0.256 0.070 0.17 0 0.336-0.087 0.43-0.244 0.141-0.237 0.063-0.544-0.174-0.686l-12.479-7.436 17.227-10.394zM36.090 31h-34.188l16.656-11.086c0.173-0.138 0.712-0.137 0.919 0.025l16.613 11.061zM6.5 13h25c0.276 0 0.5-0.224 0.5-0.5s-0.224-0.5-0.5-0.5h-25c-0.276 0-0.5 0.224-0.5 0.5s0.224 0.5 0.5 0.5z"></path>
</symbol>
<symbol id="icon-streetsign" viewBox="0 0 29 32">
<path d="M15 31.5v-9.5c0-0.276-0.133-1-0.409-1s-0.591 0.224-0.591 0.5v10c0 0.276 0.314 0.5 0.591 0.5s0.409-0.224 0.409-0.5zM15.091 1.562v-1.062c0-0.276-0.224-0.5-0.5-0.5s-0.5 0.224-0.5 0.5v1.062c0 0.276 0.224 0.5 0.5 0.5s0.5-0.223 0.5-0.5zM3.89 3.471l-3.567 2.798c-0.205 0.189-0.323 0.456-0.323 0.731s0.118 0.542 0.354 0.758l3.505 2.745c0.307 0.283 0.854 0.497 1.273 0.497h13.828c0.573 0 1.040-0.463 1.040-1.033v-5.934c0-0.57-0.467-1.033-1.040-1.033h-13.828c-0.419 0-0.966 0.214-1.242 0.471zM19 9.967c0 0.015-0.018 0.033-0.040 0.033h-13.828c-0.17 0-0.471-0.117-0.625-0.258l-3.536-2.713 3.566-2.798c0.125-0.114 0.425-0.231 0.595-0.231l13.868 0.033v5.934zM25.141 12.497c-0.307-0.283-0.854-0.497-1.273-0.497h-13.828c-0.573 0-1.040 0.463-1.040 1.033v5.935c0 0.569 0.467 1.032 1.040 1.032h13.828c0.419 0 0.966-0.214 1.243-0.471l3.566-2.798c0.205-0.189 0.323-0.456 0.323-0.731s-0.118-0.542-0.354-0.758l-3.505-2.745zM10 13h13.868c0.17 0 0.471 0.117 0.625 0.258l3.536 2.713-3.566 2.798c-0.125 0.114-0.425 0.231-0.595 0.231h-13.868v-6z"></path>
</symbol>
<symbol id="icon-map-pin" viewBox="0 0 24 32">
<path d="M12 0c-6.617 0-12 5.394-12 12.022 0 9.927 11.201 19.459 11.678 19.86 0.093 0.079 0.208 0.118 0.322 0.118s0.226-0.038 0.318-0.114c0.477-0.394 11.682-9.762 11.682-19.864 0-6.628-5.383-12.022-12-12.022zM12.002 30.838c-1.841-1.645-11.002-10.259-11.002-18.816 0-6.078 4.935-11.022 11-11.022s11 4.944 11 11.022c0 8.702-9.152 17.193-10.998 18.816zM12 6c-3.309 0-6 2.691-6 6s2.691 6 6 6 6-2.691 6-6-2.691-6-6-6zM12 17c-2.757 0-5-2.243-5-5s2.243-5 5-5 5 2.243 5 5-2.243 5-5 5z"></path>
</symbol>
<symbol id="icon-chat" viewBox="0 0 42 32">
<path d="M35.652 14.023c-0.264-0.082-0.544 0.062-0.628 0.325-0.083 0.263 0.062 0.544 0.325 0.628 3.908 1.245 5.651 3.102 5.651 6.024 0 2.599-2.371 4.616-3.783 5.588-0.136 0.094-0.217 0.247-0.217 0.412v3.823c-0.73-0.272-2.003-0.89-3.126-2.155-0.117-0.131-0.295-0.191-0.468-0.159-0.285 0.055-0.576 0.133-0.871 0.212-0.51 0.137-1.036 0.279-1.535 0.279-2.568 0-4.366-0.552-6.204-1.903-0.224-0.164-0.535-0.115-0.699 0.107-0.164 0.223-0.116 0.535 0.106 0.699 2.027 1.49 3.996 2.097 6.797 2.097 0.631 0 1.223-0.159 1.795-0.313 0.178-0.049 0.355-0.097 0.53-0.138 1.869 1.974 3.983 2.423 4.075 2.441 0.033 0.007 0.066 0.010 0.1 0.010 0.114 0 0.227-0.039 0.316-0.113 0.117-0.095 0.184-0.237 0.184-0.387v-4.239c2.582-1.841 4-4.057 4-6.261 0-3.381-2.017-5.598-6.348-6.977zM33 13.5c0-7.696-7.018-13.5-16.323-13.5-9.352 0-16.677 5.931-16.677 13.502 0 4.539 3.211 7.791 6 9.759v6.636c0 0.17 0.086 0.327 0.228 0.42 0.083 0.053 0.177 0.080 0.272 0.080 0.069 0 0.139-0.015 0.205-0.044 0.146-0.065 3.559-1.616 6.479-4.809 1.265 0.235 2.696 0.461 3.994 0.461 9.463 0 15.822-5.026 15.822-12.505zM17.177 25.005c-1.31 0-2.799-0.251-4.083-0.496-0.173-0.031-0.351 0.028-0.468 0.159-2.050 2.312-4.459 3.781-5.626 4.414v-6.082c0-0.165-0.081-0.318-0.217-0.412-2.638-1.815-5.783-4.863-5.783-9.086 0-7.011 6.886-12.502 15.677-12.502 8.736 0 15.323 5.374 15.323 12.5 0 6.882-5.957 11.505-14.823 11.505zM16.5 11.5c-1.103 0-2 0.897-2 2s0.897 2 2 2 2-0.897 2-2-0.897-2-2-2zM16.5 14.5c-0.551 0-1-0.448-1-1s0.449-1 1-1 1 0.448 1 1-0.449 1-1 1zM23.5 11.5c-1.103 0-2 0.897-2 2s0.897 2 2 2 2-0.897 2-2-0.897-2-2-2zM23.5 14.5c-0.551 0-1-0.448-1-1s0.449-1 1-1 1 0.448 1 1-0.449 1-1 1zM9.5 11.595c-1.103 0-2 0.897-2 2s0.897 2 2 2 2-0.897 2-2-0.897-2-2-2zM9.5 14.595c-0.551 0-1-0.448-1-1s0.449-1 1-1 1 0.448 1 1-0.449 1-1 1z"></path>
</symbol>
<symbol id="icon-suitcase" viewBox="0 0 32 32">
<path d="M27 29h-23c-1.105 0-2-0.896-2-2v-12c0 0 5.221 2.685 10 3.784v1.216c0 0.553 0.447 1 1 1h5c0.552 0 1-0.447 1-1v-1.216c4.778-1.099 10-3.784 10-3.784v12c0 1.104-0.896 2-2 2zM17 17c0.552 0 1 0.447 1 1v1c0 0.553-0.448 1-1 1h-3c-0.553 0-1-0.447-1-1v-1c0-0.553 0.447-1 1-1h3zM19 17c0-0.553-0.448-1-1-1h-5c-0.553 0-1 0.447-1 1v0.896c-4.779-1.132-10-3.896-10-3.896v-4c0-1.104 0.895-2 2-2h6v-2c0-1.104 0.896-2 2-2h7c1.104 0 2 0.896 2 2v2h6c1.104 0 2 0.896 2 2v4c0 0-5.222 2.764-10 3.896v-0.896zM19 7c0-0.553-0.448-1-1-1h-5c-0.553 0-1 0.447-1 1 0 0.552 0 1 0 1h7c0 0 0-0.448 0-1z"></path>
</symbol>
<symbol id="icon-list" viewBox="0 0 32 32">
<path d="M8 12h4v-4h-4v4zM8 18h4v-4h-4v4zM8 24h4v-4h-4v4zM14 8v4h10v-4h-10zM14 18h10v-4h-10v4zM14 24h10v-4h-10v4z"></path>
</symbol>
<symbol id="icon-location" viewBox="0 0 32 32">
<path d="M16.002 17.746c3.309 0 6-2.692 6-6s-2.691-6-6-6c-3.309 0-6 2.691-6 6s2.691 6 6 6zM16.002 6.746c2.758 0 5 2.242 5 5s-2.242 5-5 5c-2.758 0-5-2.242-5-5s2.242-5 5-5zM16 0c-6.618 0-12 5.316-12 12.001 0 7 6.001 14.161 10.376 19.194 0.016 0.020 0.718 0.805 1.586 0.805 0.002 0 0.073 0 0.077 0 0.867 0 1.57-0.785 1.586-0.805 4.377-5.033 10.377-12.193 10.377-19.194 0-6.685-5.383-12.001-12.002-12.001zM16.117 29.883c-0.021 0.020-0.082 0.064-0.135 0.098-0.010-0.027-0.084-0.086-0.129-0.133-3.665-4.217-9.853-11.334-9.853-17.847 0-5.514 4.487-10.001 10-10.001 5.516 0 10.002 4.487 10.002 10.002 0 6.512-6.188 13.629-9.885 17.881z"></path>
</symbol>
<symbol id="icon-like" viewBox="0 0 32 32">
<path d="M29.164 10.472c-1.25-0.328-4.189-0.324-8.488-0.438 0.203-0.938 0.25-1.784 0.25-3.286 0-3.588-2.614-6.748-4.926-6.748-1.633 0-2.979 1.335-3 2.977-0.022 2.014-0.645 5.492-4 7.256-0.246 0.13-0.95 0.477-1.053 0.522l0.053 0.045c-0.525-0.453-1.253-0.8-2-0.8h-3c-1.654 0-3 1.346-3 3v16c0 1.654 1.346 3 3 3h3c1.19 0 2.186-0.719 2.668-1.727 0.012 0.004 0.033 0.010 0.047 0.012 0.066 0.018 0.144 0.037 0.239 0.062 0.018 0.005 0.027 0.007 0.046 0.012 0.576 0.143 1.685 0.408 4.055 0.953 0.508 0.116 3.192 0.688 5.972 0.688h5.467c1.666 0 2.867-0.641 3.582-1.928 0.010-0.020 0.24-0.469 0.428-1.076 0.141-0.457 0.193-1.104 0.023-1.76 1.074-0.738 1.42-1.854 1.645-2.58 0.377-1.191 0.264-2.086 0.002-2.727 0.604-0.57 1.119-1.439 1.336-2.766 0.135-0.822-0.010-1.668-0.389-2.372 0.566-0.636 0.824-1.436 0.854-2.176l0.012-0.209c0.007-0.131 0.013-0.212 0.013-0.5 0-1.263-0.875-2.874-2.836-3.434zM7 29c0 0.553-0.447 1-1 1h-3c-0.553 0-1-0.447-1-1v-16c0-0.553 0.447-1 1-1h3c0.553 0 1 0.447 1 1v16zM29.977 14.535c-0.020 0.494-0.227 1.465-1.977 1.465-1.5 0-2 0-2 0-0.277 0-0.5 0.224-0.5 0.5s0.223 0.5 0.5 0.5c0 0 0.438 0 1.938 0s1.697 1.244 1.6 1.844c-0.124 0.746-0.474 2.156-2.163 2.156-1.687 0-2.375 0-2.375 0-0.277 0-0.5 0.223-0.5 0.5 0 0.275 0.223 0.5 0.5 0.5 0 0 1.188 0 1.969 0 1.688 0 1.539 1.287 1.297 2.055-0.319 1.009-0.514 1.945-2.641 1.945-0.719 0-1.631 0-1.631 0-0.277 0-0.5 0.223-0.5 0.5 0 0.275 0.223 0.5 0.5 0.5 0 0 0.693 0 1.568 0 1.094 0 1.145 1.035 1.031 1.406-0.125 0.406-0.273 0.707-0.279 0.721-0.302 0.545-0.789 0.873-1.82 0.873h-5.467c-2.746 0-5.47-0.623-5.54-0.639-4.154-0.957-4.373-1.031-4.634-1.105 0 0-0.846-0.143-0.846-0.881l-0.007-13.812c0-0.469 0.299-0.893 0.794-1.042 0.062-0.024 0.146-0.050 0.206-0.075 4.568-1.892 5.959-6.040 6-9.446 0.006-0.479 0.375-1 1-1 1.057 0 2.926 2.122 2.926 4.748 0 2.371-0.096 2.781-0.926 5.252 10 0 9.93 0.144 10.812 0.375 1.094 0.313 1.188 1.219 1.188 1.531 0 0.343-0.010 0.293-0.023 0.629zM4.5 26c-0.828 0-1.5 0.672-1.5 1.5s0.672 1.5 1.5 1.5 1.5-0.672 1.5-1.5-0.672-1.5-1.5-1.5zM4.5 28c-0.275 0-0.5-0.225-0.5-0.5s0.225-0.5 0.5-0.5 0.5 0.225 0.5 0.5-0.225 0.5-0.5 0.5z"></path>
</symbol>
<symbol id="icon-th-list-outline" viewBox="0 0 24 24">
<path d="M19 18c0.55 0 1 0.45 1 1s-0.45 1-1 1h-7c-0.55 0-1-0.45-1-1s0.45-1 1-1h7M19 16h-7c-1.654 0-3 1.346-3 3s1.346 3 3 3h7c1.654 0 3-1.346 3-3s-1.346-3-3-3z"></path>
<path d="M19 11c0.55 0 1 0.45 1 1s-0.45 1-1 1h-7c-0.55 0-1-0.45-1-1s0.45-1 1-1h7M19 9h-7c-1.654 0-3 1.346-3 3s1.346 3 3 3h7c1.654 0 3-1.346 3-3s-1.346-3-3-3z"></path>
<path d="M19 4c0.55 0 1 0.45 1 1s-0.45 1-1 1h-7c-0.55 0-1-0.45-1-1s0.45-1 1-1h7M19 2h-7c-1.654 0-3 1.346-3 3s1.346 3 3 3h7c1.654 0 3-1.346 3-3s-1.346-3-3-3z"></path>
<path d="M6 16h-2c-1.104 0-2 0.896-2 2v2c0 1.104 0.896 2 2 2h2c1.104 0 2-0.896 2-2v-2c0-1.104-0.896-2-2-2zM6 20h-2v-2h2v2z"></path>
<path d="M6 9h-2c-1.104 0-2 0.896-2 2v2c0 1.104 0.896 2 2 2h2c1.104 0 2-0.896 2-2v-2c0-1.104-0.896-2-2-2zM6 13h-2v-2h2v2z"></path>
<path d="M6 2h-2c-1.104 0-2 0.896-2 2v2c0 1.104 0.896 2 2 2h2c1.104 0 2-0.896 2-2v-2c0-1.104-0.896-2-2-2zM6 6h-2v-2h2v2z"></path>
</symbol>
<symbol id="icon-log-in" viewBox="0 0 24 24">
<path d="M15 4h4c0.276 0 0.525 0.111 0.707 0.293s0.293 0.431 0.293 0.707v14c0 0.276-0.111 0.525-0.293 0.707s-0.431 0.293-0.707 0.293h-4c-0.552 0-1 0.448-1 1s0.448 1 1 1h4c0.828 0 1.58-0.337 2.121-0.879s0.879-1.293 0.879-2.121v-14c0-0.828-0.337-1.58-0.879-2.121s-1.293-0.879-2.121-0.879h-4c-0.552 0-1 0.448-1 1s0.448 1 1 1zM12.586 11h-9.586c-0.552 0-1 0.448-1 1s0.448 1 1 1h9.586l-3.293 3.293c-0.391 0.391-0.391 1.024 0 1.414s1.024 0.391 1.414 0l5-5c0.096-0.096 0.168-0.206 0.217-0.324s0.076-0.247 0.076-0.383c0-0.13-0.025-0.261-0.076-0.383-0.049-0.118-0.121-0.228-0.217-0.324l-5-5c-0.391-0.391-1.024-0.391-1.414 0s-0.391 1.024 0 1.414z"></path>
</symbol>
<symbol id="icon-quill" viewBox="0 0 24 24">
<path d="M0 24c3-9 10.852-24 24-24-6.164 4.945-9 16.5-13.5 16.5s-4.5 0-4.5 0l-4.5 7.5h-1.5z"></path>
</symbol>
<symbol id="icon-bullhorn" viewBox="0 0 24 24">
<path d="M24 10.061c0-4.709-1.378-8.53-3.082-8.56 0.007-0 0.014-0.001 0.020-0.001h-1.944c0 0-4.566 3.43-11.138 4.775-0.201 1.062-0.329 2.327-0.329 3.785s0.128 2.724 0.329 3.785c6.573 1.346 11.138 4.776 11.138 4.776h1.944c-0.007 0-0.014-0.001-0.020-0.001 1.704-0.030 3.082-3.851 3.082-8.56zM20.269 17.326c-0.22 0-0.458-0.228-0.58-0.364-0.296-0.33-0.581-0.843-0.825-1.484-0.545-1.435-0.845-3.359-0.845-5.417s0.3-3.982 0.845-5.417c0.244-0.641 0.529-1.155 0.825-1.484 0.122-0.136 0.36-0.365 0.58-0.365s0.458 0.228 0.58 0.365c0.296 0.33 0.581 0.843 0.825 1.484 0.545 1.435 0.845 3.359 0.845 5.417s-0.3 3.982-0.845 5.417c-0.244 0.641-0.529 1.155-0.825 1.484-0.122 0.136-0.36 0.364-0.58 0.364zM5.902 10.061c0-1.218 0.089-2.401 0.259-3.494-1.11 0.154-2.085 0.242-3.289 0.242-1.572 0-1.572 0-1.572 0l-1.3 2.219v2.066l1.3 2.219c0 0 0 0 1.572 0 1.205 0 2.179 0.088 3.289 0.242-0.17-1.094-0.259-2.277-0.259-3.494zM8.629 15.051l-3-0.574 1.918 7.536c0.099 0.39 0.486 0.587 0.86 0.437l2.779-1.112c0.374-0.149 0.523-0.562 0.333-0.916l-2.889-5.371zM20.269 12.861c-0.085 0-0.176-0.088-0.224-0.14-0.114-0.127-0.224-0.325-0.318-0.572-0.21-0.553-0.326-1.295-0.326-2.088s0.116-1.535 0.326-2.088c0.094-0.247 0.204-0.445 0.318-0.572 0.047-0.053 0.139-0.14 0.224-0.14s0.176 0.088 0.224 0.14c0.114 0.127 0.224 0.325 0.318 0.572 0.21 0.553 0.326 1.295 0.326 2.088s-0.116 1.535-0.326 2.088c-0.094 0.247-0.204 0.445-0.318 0.572-0.047 0.052-0.139 0.14-0.224 0.14z"></path>
</symbol>
<symbol id="icon-map" viewBox="0 0 24 24">
<path d="M0 4.5l7.5-3v18l-7.5 3z"></path>
<path d="M9 0.75l7.5 4.5v17.25l-7.5-3.75z"></path>
<path d="M18 5.25l6-4.5v18l-6 4.5z"></path>
</symbol>
<symbol id="icon-hammer" viewBox="0 0 24 24">
<path d="M23.672 19.429l-7.067-7.067c-0.438-0.438-1.153-0.438-1.591 0l-0.53 0.53-4.313-4.313 7.079-7.079h-7.5l-3.329 3.329-0.33-0.329h-1.591v1.591l0.329 0.329-4.829 4.83 3.75 3.75 4.829-4.829 4.313 4.313-0.53 0.53c-0.438 0.438-0.438 1.153 0 1.591l7.067 7.067c0.438 0.438 1.153 0.438 1.591 0l2.652-2.652c0.438-0.437 0.438-1.153 0-1.591z"></path>
</symbol>
<symbol id="icon-fire" viewBox="0 0 24 24">
<path d="M7.524 24c-1.6-3.328-0.748-5.235 0.482-7.032 1.346-1.968 1.693-3.916 1.693-3.916s1.058 1.376 0.635 3.528c1.87-2.081 2.222-5.397 1.94-6.667 4.226 2.953 6.032 9.348 3.598 14.087 12.946-7.325 3.22-18.285 1.527-19.52 0.564 1.235 0.671 3.325-0.469 4.339-1.93-7.319-6.702-8.819-6.702-8.819 0.564 3.774-2.046 7.902-4.563 10.986-0.088-1.505-0.182-2.544-0.974-3.984-0.178 2.734-2.267 4.963-2.833 7.702-0.766 3.71 0.574 6.426 5.666 9.296z"></path>
</symbol>
<symbol id="icon-location1" viewBox="0 0 32 32">
<path d="M15.938 32c0 0-9.938-14.062-9.938-20.062 0-11.813 9.938-11.938 9.938-11.938s10.062 0.125 10.062 11.875c0 6.187-10.062 20.125-10.062 20.125zM16 6c-2.209 0-4 1.791-4 4s1.791 4 4 4 4-1.791 4-4-1.791-4-4-4z"></path>
</symbol>
<symbol id="icon-compass" viewBox="0 0 32 32">
<path d="M9.144 22.987l9.84-4.032 4.032-9.935-9.934 3.939-3.938 10.028zM16.029 14.029c1.104 0 2 0.896 2 2s-0.896 2-2 2-2-0.896-2-2 0.896-2 2-2zM16 0c-8.837 0-16 7.163-16 16s7.163 16 16 16 16-7.163 16-16-7.163-16-16-16zM16.112 28.021c-6.647 0-12.035-5.388-12.035-12.034s5.388-12.035 12.035-12.035c6.646 0 12.034 5.389 12.034 12.036s-5.387 12.033-12.034 12.033z"></path>
</symbol>
<symbol id="icon-quill" viewBox="0 0 32 32">
<path d="M0 32c4-12 14.469-32 32-32-8.219 6.594-12 22-18 22s-6 0-6 0l-6 10h-2z"></path>
</symbol>
<symbol id="icon-bullhorn" viewBox="0 0 32 32">
<path d="M32 13.414c0-6.279-1.837-11.373-4.109-11.413 0.009-0 0.018-0.001 0.027-0.001h-2.592c0 0-6.088 4.573-14.851 6.367-0.268 1.415-0.438 3.102-0.438 5.047s0.171 3.631 0.438 5.047c8.763 1.794 14.851 6.367 14.851 6.367h2.592c-0.009 0-0.018-0.001-0.027-0.001 2.272-0.040 4.109-5.134 4.109-11.413zM27.026 23.102c-0.293 0-0.61-0.304-0.773-0.486-0.395-0.439-0.775-1.124-1.1-1.979-0.727-1.913-1.127-4.478-1.127-7.223s0.4-5.309 1.127-7.223c0.325-0.855 0.705-1.54 1.1-1.979 0.163-0.182 0.48-0.486 0.773-0.486s0.61 0.304 0.773 0.486c0.395 0.439 0.775 1.124 1.1 1.979 0.727 1.913 1.127 4.479 1.127 7.223s-0.4 5.309-1.127 7.223c-0.325 0.855-0.705 1.54-1.1 1.979-0.163 0.181-0.48 0.486-0.773 0.486zM7.869 13.414c0-1.623 0.119-3.201 0.345-4.659-1.48 0.205-2.779 0.323-4.386 0.323-2.096 0-2.096 0-2.096 0l-1.733 2.959v2.755l1.733 2.959c0 0 0 0 2.096 0 1.606 0 2.905 0.118 4.386 0.323-0.226-1.458-0.345-3.036-0.345-4.659zM11.505 20.068l-4-0.766 2.558 10.048c0.132 0.52 0.648 0.782 1.146 0.583l3.705-1.483c0.498-0.199 0.698-0.749 0.444-1.221l-3.853-7.161zM27.026 17.148c-0.113 0-0.235-0.117-0.298-0.187-0.152-0.169-0.299-0.433-0.424-0.763-0.28-0.738-0.434-1.726-0.434-2.784s0.154-2.046 0.434-2.784c0.125-0.33 0.272-0.593 0.424-0.763 0.063-0.070 0.185-0.187 0.298-0.187s0.235 0.117 0.298 0.187c0.152 0.169 0.299 0.433 0.424 0.763 0.28 0.737 0.434 1.726 0.434 2.784s-0.154 2.046-0.434 2.784c-0.125 0.33-0.272 0.593-0.424 0.763-0.063 0.070-0.185 0.187-0.298 0.187z"></path>
</symbol>
<symbol id="icon-map" viewBox="0 0 32 32">
<path d="M0 6l10-4v24l-10 4z"></path>
<path d="M12 1l10 6v23l-10-5z"></path>
<path d="M24 7l8-6v24l-8 6z"></path>
</symbol>
<symbol id="icon-hammer" viewBox="0 0 32 32">
<path d="M31.562 25.905l-9.423-9.423c-0.583-0.583-1.538-0.583-2.121 0l-0.707 0.707-5.75-5.75 9.439-9.439h-10l-4.439 4.439-0.439-0.439h-2.121v2.121l0.439 0.439-6.439 6.439 5 5 6.439-6.439 5.75 5.75-0.707 0.707c-0.583 0.583-0.583 1.538 0 2.121l9.423 9.423c0.583 0.583 1.538 0.583 2.121 0l3.535-3.535c0.583-0.583 0.583-1.538 0-2.121z"></path>
</symbol>
<symbol id="icon-fire" viewBox="0 0 32 32">
<path d="M10.031 32c-2.133-4.438-0.997-6.981 0.642-9.376 1.795-2.624 2.258-5.221 2.258-5.221s1.411 1.834 0.847 4.703c2.493-2.775 2.963-7.196 2.587-8.889 5.635 3.938 8.043 12.464 4.798 18.783 17.262-9.767 4.294-24.38 2.036-26.027 0.753 1.646 0.895 4.433-0.625 5.785-2.573-9.759-8.937-11.759-8.937-11.759 0.753 5.033-2.728 10.536-6.084 14.648-0.118-2.007-0.243-3.392-1.298-5.312-0.237 3.646-3.023 6.617-3.777 10.27-1.022 4.946 0.765 8.568 7.555 12.394z"></path>
</symbol>
</defs>
</svg>
